<svg xmlns="http://www.w3.org/2000/svg" xml:space="preserve" width="800" height="800" viewBox="0 0 373.294 373.294"><path d="M334.59 231.841c-21.18 1.306-49.043 22.475-75.924 34.648-32.926 14.896-84.205 2.914-84.21 2.914 7.899-3.703 40.039-11.36 46.517-14.221 34.41-15.123 31.508-46.688 15.119-46.422-21.668.364-34.363 5.679-77.568 11.569-32.746 4.451-71.474 2.824-90.053 9.916C42.247 240.265 0 307.656 0 307.656l65.311 63.271s40.424-39.805 60.092-39.805c44.818 0 46.637-.615 88.266-2.863 17.683-.946 21.39-1.673 31.513-5.104 53.945-18.224 111.875-66.802 112.941-72.647 2.477-13.529-12.324-19.363-23.533-18.667zM244.463 133.917a2.742 2.742 0 0 0 2.873-1.238c15.004-24.178 37.66-53.426 67.203-73.303-27.535 26.443-46.979 54.278-58.766 80.481a2.737 2.737 0 0 0 2.125 3.832c1.924.261 3.922.396 5.934.396 18.869 0 37.664-11.498 50.105-21.142 14.209-11.013 27.854-25.565 36.504-38.935 12.975-20.053 21.088-44.767 22.846-69.595a2.735 2.735 0 0 0-2.922-2.921c-18.799 1.331-65.445 7.364-92.723 34.589-.953.86-10.996 10.101-20.336 24.872-12.801 20.254-17.99 41.24-14.998 60.697a2.727 2.727 0 0 0 2.155 2.267zM169.86 162.913c11.859 9.192 29.771 20.148 47.755 20.148 1.918 0 3.822-.125 5.652-.379a2.61 2.61 0 0 0 2.028-3.649c-11.232-24.972-29.764-51.5-56.009-76.702 28.157 18.945 49.751 46.821 64.049 69.862a2.614 2.614 0 0 0 2.739 1.178 2.614 2.614 0 0 0 2.057-2.159c2.846-18.541-2.095-38.544-14.297-57.844-8.9-14.08-18.477-22.882-19.383-23.705C178.457 63.719 134 57.967 116.083 56.7a2.583 2.583 0 0 0-2.027.755 2.61 2.61 0 0 0-.757 2.029c1.676 23.661 9.407 47.214 21.772 66.323 8.244 12.743 21.25 26.611 34.789 37.106zM195.488 73.118c7.9 6.12 19.83 13.419 31.808 13.419 1.276 0 2.546-.087 3.767-.254a1.734 1.734 0 0 0 1.348-2.432c-7.481-16.635-19.821-34.301-37.302-51.086 18.752 12.616 33.134 31.186 42.66 46.53a1.738 1.738 0 0 0 3.193-.653c1.895-12.35-1.395-25.672-9.521-38.528-5.928-9.375-12.307-15.24-12.909-15.787-17.316-17.281-46.925-21.111-58.858-21.956a1.733 1.733 0 0 0-1.856 1.855c1.115 15.761 6.265 31.448 14.501 44.175 5.49 8.488 14.154 17.724 23.169 24.717z"/></svg>